<svg xmlns="http://www.w3.org/2000/svg" xmlns:xlink="http://www.w3.org/1999/xlink" width="500" zoomAndPan="magnify" viewBox="0 0 375 139.500001" height="186" preserveAspectRatio="xMidYMid meet" version="1.0"><defs><g/><clipPath id="2187fedab4"><path d="M 0.667969 0 L 374 0 L 374 139 L 0.667969 139 Z M 0.667969 0 " clip-rule="nonzero"/></clipPath><clipPath id="3045c3dfd1"><path d="M 0.667969 0 L 374.328125 0 L 374.328125 139 L 0.667969 139 Z M 0.667969 0 " clip-rule="nonzero"/></clipPath><clipPath id="3498814f8d"><path d="M 8.453125 8.589844 L 366.78125 8.589844 L 366.78125 130.410156 L 8.453125 130.410156 Z M 8.453125 8.589844 " clip-rule="nonzero"/></clipPath><clipPath id="02bcf885ce"><path d="M 8.457031 8.589844 L 366.414062 8.589844 L 366.414062 130.402344 L 8.457031 130.402344 Z M 8.457031 8.589844 " clip-rule="nonzero"/></clipPath><clipPath id="29a45aadf8"><path d="M 105.828125 47 L 129 47 L 129 92 L 105.828125 92 Z M 105.828125 47 " clip-rule="nonzero"/></clipPath><clipPath id="d99706d841"><path d="M 106 32.023438 L 108 32.023438 L 108 46 L 106 46 Z M 106 32.023438 " clip-rule="nonzero"/></clipPath><clipPath id="d6933c9163"><path d="M 130 69 L 144.6875 69 L 144.6875 71 L 130 71 Z M 130 69 " clip-rule="nonzero"/></clipPath><clipPath id="bb888d4461"><path d="M 106 92 L 108 92 L 108 106.753906 L 106 106.753906 Z M 106 92 " clip-rule="nonzero"/></clipPath><clipPath id="9af7b1b780"><path d="M 84 47 L 106.527344 47 L 106.527344 92 L 84 92 Z M 84 47 " clip-rule="nonzero"/></clipPath><clipPath id="ea3c9e22ba"><path d="M 104 93 L 106 93 L 106 107.097656 L 104 107.097656 Z M 104 93 " clip-rule="nonzero"/></clipPath><clipPath id="52822b46ad"><path d="M 67.667969 69 L 82 69 L 82 70 L 67.667969 70 Z M 67.667969 69 " clip-rule="nonzero"/></clipPath><clipPath id="d734e4a3a5"><path d="M 104 32.367188 L 106 32.367188 L 106 47 L 104 47 Z M 104 32.367188 " clip-rule="nonzero"/></clipPath></defs><g clip-path="url(#2187fedab4)"><path fill="#e84c03" d="M 0.667969 0 L 373.910156 0 L 373.910156 138.945312 L 0.667969 138.945312 Z M 0.667969 0 " fill-opacity="1" fill-rule="nonzero"/></g><g clip-path="url(#3045c3dfd1)"><path stroke-linecap="butt" transform="matrix(0.747321, 0, 0, 0.747321, 0.669643, 0.00000498214)" fill="none" stroke-linejoin="miter" d="M -0.00224086 -0.00000666667 L 500.00229 -0.00000666667 L 500.00229 185.997623 L -0.00224086 185.997623 L -0.00224086 -0.00000666667 " stroke="#000000" stroke-width="12" stroke-opacity="1" stroke-miterlimit="4"/></g><g clip-path="url(#3498814f8d)"><path fill="#e84c03" d="M 8.453125 8.589844 L 367.164062 8.589844 L 367.164062 130.28125 L 8.453125 130.28125 Z M 8.453125 8.589844 " fill-opacity="1" fill-rule="nonzero"/></g><g clip-path="url(#02bcf885ce)"><path stroke-linecap="butt" transform="matrix(0.746591, 0, 0, 0.747321, 8.458564, 8.590031)" fill="none" stroke-linejoin="miter" d="M -0.00205278 -0.00025077 L 479.453435 -0.00025077 L 479.453435 162.998571 L -0.00205278 162.998571 L -0.00205278 -0.00025077 " stroke="#000000" stroke-width="10" stroke-opacity="1" stroke-miterlimit="4"/></g><g fill="#000000" fill-opacity="0.4"><g transform="translate(19.654114, 106.162717)"><g><path d="M 39.402344 -46.902344 L 48.4375 -47.265625 C 46.8125 -58.832031 36.691406 -63.894531 26.929688 -63.894531 C 19.609375 -63.894531 12.019531 -61 7.773438 -55.488281 C 5.421875 -52.414062 4.246094 -48.800781 4.246094 -45.003906 C 4.246094 -44.554688 4.335938 -44.011719 4.335938 -43.46875 L 4.335938 -43.558594 C 5.332031 -30.363281 16.898438 -28.195312 26.75 -27.203125 C 33.074219 -26.570312 39.582031 -25.757812 40.667969 -20.964844 C 40.847656 -20.152344 40.9375 -19.429688 40.9375 -18.796875 C 40.9375 -12.289062 33.527344 -8.496094 26.75 -8.496094 C 20.875 -8.496094 13.738281 -11.566406 13.105469 -17.441406 L 13.105469 -17.082031 L 13.011719 -18.4375 L 3.796875 -18.253906 L 3.886719 -16.539062 C 5.0625 -5.242188 16.898438 0.542969 26.660156 0.542969 C 38.046875 0.542969 50.15625 -6.507812 50.15625 -18.707031 C 50.15625 -19.972656 49.976562 -21.507812 49.703125 -22.863281 C 47.265625 -32.984375 36.511719 -35.246094 27.835938 -36.328125 C 20.785156 -36.960938 13.464844 -37.867188 13.464844 -45.1875 C 13.464844 -46.992188 13.917969 -48.800781 15 -50.15625 C 17.621094 -53.5 22.414062 -54.945312 26.75 -54.945312 C 32.171875 -54.945312 38.136719 -52.507812 39.402344 -46.902344 Z M 39.402344 -46.902344 "/></g></g></g><g fill="#000000" fill-opacity="1"><g transform="translate(15.10072, 101.609322)"><g><path d="M 39.402344 -46.902344 L 48.4375 -47.265625 C 46.8125 -58.832031 36.691406 -63.894531 26.929688 -63.894531 C 19.609375 -63.894531 12.019531 -61 7.773438 -55.488281 C 5.421875 -52.414062 4.246094 -48.800781 4.246094 -45.003906 C 4.246094 -44.554688 4.335938 -44.011719 4.335938 -43.46875 L 4.335938 -43.558594 C 5.332031 -30.363281 16.898438 -28.195312 26.75 -27.203125 C 33.074219 -26.570312 39.582031 -25.757812 40.667969 -20.964844 C 40.847656 -20.152344 40.9375 -19.429688 40.9375 -18.796875 C 40.9375 -12.289062 33.527344 -8.496094 26.75 -8.496094 C 20.875 -8.496094 13.738281 -11.566406 13.105469 -17.441406 L 13.105469 -17.082031 L 13.011719 -18.4375 L 3.796875 -18.253906 L 3.886719 -16.539062 C 5.0625 -5.242188 16.898438 0.542969 26.660156 0.542969 C 38.046875 0.542969 50.15625 -6.507812 50.15625 -18.707031 C 50.15625 -19.972656 49.976562 -21.507812 49.703125 -22.863281 C 47.265625 -32.984375 36.511719 -35.246094 27.835938 -36.328125 C 20.785156 -36.960938 13.464844 -37.867188 13.464844 -45.1875 C 13.464844 -46.992188 13.917969 -48.800781 15 -50.15625 C 17.621094 -53.5 22.414062 -54.945312 26.75 -54.945312 C 32.171875 -54.945312 38.136719 -52.507812 39.402344 -46.902344 Z M 39.402344 -46.902344 "/></g></g></g><g fill="#000000" fill-opacity="0.4"><g transform="translate(73.410535, 106.162717)"><g/></g></g><g fill="#000000" fill-opacity="0.4"><g transform="translate(95.910987, 106.162717)"><g/></g></g><g fill="#000000" fill-opacity="0.4"><g transform="translate(118.41144, 106.162717)"><g/></g></g><g fill="#000000" fill-opacity="1"><g transform="translate(68.85714, 101.609322)"><g/></g></g><g fill="#000000" fill-opacity="1"><g transform="translate(91.357593, 101.609322)"><g/></g></g><g fill="#000000" fill-opacity="1"><g transform="translate(113.858046, 101.609322)"><g/></g></g><g fill="#000000" fill-opacity="0.4"><g transform="translate(140.894495, 106.162717)"><g><path d="M 19.699219 -55.21875 L 19.699219 0 L 28.828125 0 L 28.828125 -55.21875 L 47.898438 -55.21875 L 47.898438 -63.894531 L 0.542969 -63.894531 L 0.542969 -55.21875 Z M 19.699219 -55.21875 "/></g></g></g><g fill="#000000" fill-opacity="0.4"><g transform="translate(189.41956, 106.162717)"><g><path d="M 30.363281 0.632812 C 41.210938 0.632812 53.679688 -6.054688 53.679688 -18.886719 L 53.679688 -63.894531 L 44.464844 -63.894531 L 44.464844 -18.976562 C 44.464844 -12.019531 36.960938 -8.496094 30.363281 -8.496094 C 23.675781 -8.496094 16.175781 -11.929688 16.175781 -18.886719 L 16.175781 -63.894531 L 6.957031 -63.894531 L 6.957031 -18.976562 C 6.957031 -6.054688 19.25 0.632812 30.363281 0.632812 Z M 30.363281 0.632812 "/></g></g></g><g fill="#000000" fill-opacity="0.4"><g transform="translate(250.053289, 106.162717)"><g><path d="M 30.816406 -32.082031 L 20.152344 -32.082031 L 20.152344 -27.746094 L 43.199219 0 L 55.035156 0 L 35.0625 -23.769531 C 45.910156 -25.664062 51.421875 -34.160156 51.421875 -43.105469 C 51.421875 -53.136719 44.554688 -64.074219 30.816406 -64.074219 L 7.773438 -64.074219 L 7.773438 0 L 16.808594 0 L 16.808594 -54.855469 L 30.816406 -54.855469 C 38.5 -54.855469 42.292969 -48.53125 42.292969 -43.105469 C 42.292969 -37.59375 38.5 -32.082031 30.816406 -32.082031 Z M 30.816406 -32.082031 "/></g></g></g><g fill="#000000" fill-opacity="0.4"><g transform="translate(303.909776, 106.162717)"><g><path d="M 7.773438 -63.261719 L 7.773438 0 L 16.898438 0 L 16.898438 -44.191406 L 47.445312 0 L 54.675781 0 L 54.675781 -63.261719 L 45.636719 -63.261719 L 45.636719 -18.707031 L 14.820312 -63.261719 Z M 7.773438 -63.261719 "/></g></g></g><g fill="#000000" fill-opacity="1"><g transform="translate(136.341101, 101.609322)"><g><path d="M 19.699219 -55.21875 L 19.699219 0 L 28.828125 0 L 28.828125 -55.21875 L 47.898438 -55.21875 L 47.898438 -63.894531 L 0.542969 -63.894531 L 0.542969 -55.21875 Z M 19.699219 -55.21875 "/></g></g></g><g fill="#000000" fill-opacity="1"><g transform="translate(184.866166, 101.609322)"><g><path d="M 30.363281 0.632812 C 41.210938 0.632812 53.679688 -6.054688 53.679688 -18.886719 L 53.679688 -63.894531 L 44.464844 -63.894531 L 44.464844 -18.976562 C 44.464844 -12.019531 36.960938 -8.496094 30.363281 -8.496094 C 23.675781 -8.496094 16.175781 -11.929688 16.175781 -18.886719 L 16.175781 -63.894531 L 6.957031 -63.894531 L 6.957031 -18.976562 C 6.957031 -6.054688 19.25 0.632812 30.363281 0.632812 Z M 30.363281 0.632812 "/></g></g></g><g fill="#000000" fill-opacity="1"><g transform="translate(245.499895, 101.609322)"><g><path d="M 30.816406 -32.082031 L 20.152344 -32.082031 L 20.152344 -27.746094 L 43.199219 0 L 55.035156 0 L 35.0625 -23.769531 C 45.910156 -25.664062 51.421875 -34.160156 51.421875 -43.105469 C 51.421875 -53.136719 44.554688 -64.074219 30.816406 -64.074219 L 7.773438 -64.074219 L 7.773438 0 L 16.808594 0 L 16.808594 -54.855469 L 30.816406 -54.855469 C 38.5 -54.855469 42.292969 -48.53125 42.292969 -43.105469 C 42.292969 -37.59375 38.5 -32.082031 30.816406 -32.082031 Z M 30.816406 -32.082031 "/></g></g></g><g fill="#000000" fill-opacity="1"><g transform="translate(299.356381, 101.609322)"><g><path d="M 7.773438 -63.261719 L 7.773438 0 L 16.898438 0 L 16.898438 -44.191406 L 47.445312 0 L 54.675781 0 L 54.675781 -63.261719 L 45.636719 -63.261719 L 45.636719 -18.707031 L 14.820312 -63.261719 Z M 7.773438 -63.261719 "/></g></g></g><g clip-path="url(#29a45aadf8)"><path fill="#000000" d="M 106.414062 91.152344 C 118.417969 90.988281 128.132812 81.289062 128.132812 69.390625 C 128.132812 57.488281 118.417969 47.789062 106.414062 47.625 L 106.414062 47.621094 L 106.125 47.621094 C 106.125 47.621094 106.125 47.621094 106.121094 47.621094 L 105.832031 47.621094 L 105.832031 91.160156 L 106.414062 91.160156 Z M 127.550781 69.390625 C 127.550781 80.972656 118.097656 90.410156 106.414062 90.578125 L 106.414062 48.199219 C 118.097656 48.367188 127.550781 57.804688 127.550781 69.390625 Z M 127.550781 69.390625 " fill-opacity="1" fill-rule="nonzero"/></g><g clip-path="url(#d99706d841)"><path fill="#000000" d="M 107.503906 45.917969 L 107.503906 32.035156 C 107.292969 32.03125 107.082031 32.027344 106.871094 32.027344 L 106.871094 45.90625 C 107.082031 45.90625 107.292969 45.914062 107.503906 45.917969 Z M 107.503906 45.917969 " fill-opacity="1" fill-rule="nonzero"/></g><path fill="#000000" d="M 113.699219 46.894531 L 117.339844 33.476562 C 117.136719 33.421875 116.933594 33.367188 116.726562 33.3125 L 113.089844 46.722656 C 113.296875 46.777344 113.5 46.832031 113.699219 46.894531 Z M 113.699219 46.894531 " fill-opacity="1" fill-rule="nonzero"/><path fill="#000000" d="M 119.398438 49.433594 L 126.425781 37.40625 C 126.246094 37.300781 126.0625 37.191406 125.878906 37.085938 L 118.855469 49.109375 C 119.035156 49.214844 119.21875 49.320312 119.398438 49.433594 Z M 119.398438 49.433594 " fill-opacity="1" fill-rule="nonzero"/><path fill="#000000" d="M 124.207031 53.332031 L 134.144531 43.511719 C 134 43.359375 133.851562 43.210938 133.703125 43.0625 L 123.769531 52.878906 C 123.917969 53.023438 124.0625 53.179688 124.207031 53.332031 Z M 124.207031 53.332031 " fill-opacity="1" fill-rule="nonzero"/><path fill="#000000" d="M 127.820312 58.292969 L 139.992188 51.351562 C 139.886719 51.167969 139.785156 50.988281 139.679688 50.804688 L 127.507812 57.75 C 127.617188 57.929688 127.722656 58.109375 127.820312 58.292969 Z M 127.820312 58.292969 " fill-opacity="1" fill-rule="nonzero"/><path fill="#000000" d="M 130 63.984375 L 143.578125 60.390625 C 143.527344 60.1875 143.476562 59.988281 143.421875 59.785156 L 129.851562 63.378906 C 129.90625 63.578125 129.953125 63.78125 130 63.984375 Z M 130 63.984375 " fill-opacity="1" fill-rule="nonzero"/><g clip-path="url(#d6933c9163)"><path fill="#000000" d="M 130.625 70.015625 L 144.675781 70.015625 C 144.679688 69.808594 144.683594 69.597656 144.683594 69.390625 L 130.640625 69.390625 C 130.640625 69.597656 130.628906 69.808594 130.625 70.015625 Z M 130.625 70.015625 " fill-opacity="1" fill-rule="nonzero"/></g><path fill="#000000" d="M 118.578125 89.824219 L 125.605469 101.847656 C 125.789062 101.742188 125.972656 101.636719 126.152344 101.53125 L 119.128906 89.511719 C 118.949219 89.621094 118.765625 89.722656 118.578125 89.824219 Z M 118.578125 89.824219 " fill-opacity="1" fill-rule="nonzero"/><path fill="#000000" d="M 112.933594 92.101562 L 116.570312 105.507812 C 116.773438 105.457031 116.980469 105.402344 117.179688 105.34375 L 113.542969 91.929688 C 113.339844 91.988281 113.140625 92.046875 112.933594 92.101562 Z M 112.933594 92.101562 " fill-opacity="1" fill-rule="nonzero"/><g clip-path="url(#bb888d4461)"><path fill="#000000" d="M 107.503906 92.859375 C 107.292969 92.863281 107.082031 92.875 106.871094 92.875 L 106.871094 106.753906 C 107.082031 106.753906 107.292969 106.746094 107.503906 106.746094 Z M 107.503906 92.859375 " fill-opacity="1" fill-rule="nonzero"/></g><path fill="#000000" d="M 127.238281 81.5 L 139.40625 88.441406 C 139.515625 88.261719 139.621094 88.082031 139.726562 87.898438 L 127.554688 80.957031 C 127.449219 81.140625 127.347656 81.324219 127.238281 81.5 Z M 127.238281 81.5 " fill-opacity="1" fill-rule="nonzero"/><path fill="#000000" d="M 123.449219 86.210938 L 133.382812 96.027344 C 133.535156 95.882812 133.683594 95.734375 133.832031 95.585938 L 123.898438 85.769531 C 123.75 85.917969 123.601562 86.066406 123.449219 86.210938 Z M 123.449219 86.210938 " fill-opacity="1" fill-rule="nonzero"/><path fill="#000000" d="M 129.683594 75.980469 L 143.261719 79.574219 C 143.320312 79.375 143.375 79.175781 143.425781 78.972656 L 129.855469 75.378906 C 129.804688 75.582031 129.742188 75.78125 129.683594 75.980469 Z M 129.683594 75.980469 " fill-opacity="1" fill-rule="nonzero"/><path fill="#000000" d="M 110.957031 56.742188 L 111.300781 56.59375 C 112.144531 56.234375 112.421875 55.960938 112.785156 55.125 L 112.9375 54.785156 L 113.085938 55.125 C 113.449219 55.960938 113.726562 56.234375 114.570312 56.59375 L 114.917969 56.742188 L 114.570312 56.890625 C 113.726562 57.25 113.449219 57.523438 113.085938 58.355469 L 112.9375 58.699219 L 112.785156 58.355469 C 112.421875 57.523438 112.144531 57.25 111.300781 56.890625 Z M 112.933594 55.570312 C 112.640625 56.148438 112.335938 56.453125 111.75 56.742188 C 112.335938 57.03125 112.640625 57.335938 112.933594 57.914062 C 113.226562 57.335938 113.535156 57.03125 114.117188 56.742188 C 113.535156 56.453125 113.226562 56.148438 112.933594 55.570312 Z M 112.933594 55.570312 " fill-opacity="1" fill-rule="nonzero"/><path fill="#000000" d="M 119.089844 66.285156 L 119.433594 66.140625 C 120.28125 65.777344 120.554688 65.503906 120.921875 64.671875 L 121.070312 64.332031 L 121.21875 64.671875 C 121.582031 65.503906 121.859375 65.777344 122.703125 66.140625 L 123.050781 66.285156 L 122.703125 66.433594 C 121.859375 66.792969 121.582031 67.066406 121.21875 67.902344 L 121.070312 68.242188 L 120.921875 67.902344 C 120.554688 67.066406 120.28125 66.792969 119.433594 66.433594 Z M 121.070312 65.117188 C 120.777344 65.695312 120.46875 65.996094 119.886719 66.285156 C 120.46875 66.578125 120.777344 66.878906 121.070312 67.457031 C 121.363281 66.878906 121.667969 66.578125 122.253906 66.285156 C 121.667969 65.996094 121.363281 65.695312 121.070312 65.117188 Z M 121.070312 65.117188 " fill-opacity="1" fill-rule="nonzero"/><path fill="#000000" d="M 107.972656 74.335938 L 108.316406 74.191406 C 109.164062 73.832031 109.441406 73.554688 109.804688 72.722656 L 109.953125 72.382812 L 110.101562 72.722656 C 110.46875 73.554688 110.742188 73.832031 111.589844 74.191406 L 111.933594 74.335938 L 111.589844 74.484375 C 110.742188 74.84375 110.46875 75.117188 110.101562 75.953125 L 109.953125 76.292969 L 109.804688 75.953125 C 109.441406 75.117188 109.164062 74.84375 108.316406 74.484375 Z M 109.953125 73.167969 C 109.660156 73.746094 109.351562 74.046875 108.765625 74.335938 C 109.351562 74.628906 109.660156 74.929688 109.953125 75.507812 C 110.246094 74.929688 110.550781 74.628906 111.136719 74.335938 C 110.550781 74.046875 110.246094 73.746094 109.953125 73.167969 Z M 109.953125 73.167969 " fill-opacity="1" fill-rule="nonzero"/><path fill="#000000" d="M 114.136719 81.605469 L 114.480469 81.457031 C 115.324219 81.097656 115.601562 80.824219 115.964844 79.988281 L 116.113281 79.648438 L 116.265625 79.988281 C 116.628906 80.824219 116.90625 81.097656 117.75 81.457031 L 118.09375 81.605469 L 117.75 81.75 C 116.90625 82.113281 116.628906 82.386719 116.265625 83.21875 L 116.113281 83.5625 L 115.964844 83.21875 C 115.601562 82.386719 115.324219 82.113281 114.480469 81.75 Z M 116.113281 80.433594 C 115.820312 81.011719 115.515625 81.316406 114.929688 81.605469 C 115.515625 81.894531 115.820312 82.195312 116.113281 82.773438 C 116.40625 82.195312 116.714844 81.894531 117.296875 81.605469 C 116.714844 81.316406 116.40625 81.011719 116.113281 80.433594 Z M 116.113281 80.433594 " fill-opacity="1" fill-rule="nonzero"/><path fill="#000000" d="M 116.054688 72.785156 C 115.976562 72.785156 115.910156 72.757812 115.855469 72.703125 C 115.796875 72.648438 115.769531 72.582031 115.769531 72.503906 C 115.769531 72.425781 115.796875 72.359375 115.855469 72.304688 C 115.910156 72.25 115.976562 72.222656 116.054688 72.222656 C 116.132812 72.222656 116.203125 72.25 116.257812 72.304688 C 116.3125 72.359375 116.339844 72.425781 116.339844 72.503906 C 116.339844 72.582031 116.3125 72.648438 116.257812 72.703125 C 116.203125 72.757812 116.132812 72.785156 116.054688 72.785156 Z M 116.054688 72.785156 " fill-opacity="1" fill-rule="nonzero"/><path fill="#000000" d="M 115.9375 61.441406 C 115.859375 61.441406 115.792969 61.414062 115.734375 61.359375 C 115.679688 61.304688 115.652344 61.238281 115.652344 61.160156 C 115.652344 61.082031 115.679688 61.015625 115.734375 60.960938 C 115.792969 60.90625 115.859375 60.878906 115.9375 60.878906 C 116.015625 60.878906 116.082031 60.90625 116.136719 60.960938 C 116.195312 61.015625 116.222656 61.082031 116.222656 61.160156 C 116.222656 61.238281 116.195312 61.304688 116.136719 61.359375 C 116.082031 61.414062 116.015625 61.441406 115.9375 61.441406 Z M 115.9375 61.441406 " fill-opacity="1" fill-rule="nonzero"/><path fill="#000000" d="M 123.484375 73.066406 C 123.402344 73.066406 123.335938 73.039062 123.28125 72.984375 C 123.226562 72.929688 123.199219 72.863281 123.199219 72.785156 C 123.199219 72.707031 123.226562 72.640625 123.28125 72.585938 C 123.335938 72.53125 123.402344 72.503906 123.484375 72.503906 C 123.5625 72.503906 123.628906 72.53125 123.683594 72.585938 C 123.738281 72.640625 123.769531 72.707031 123.769531 72.785156 C 123.769531 72.863281 123.738281 72.929688 123.683594 72.984375 C 123.628906 73.039062 123.5625 73.066406 123.484375 73.066406 Z M 123.484375 73.066406 " fill-opacity="1" fill-rule="nonzero"/><path fill="#000000" d="M 109.667969 65.871094 C 109.585938 65.871094 109.519531 65.84375 109.464844 65.789062 C 109.410156 65.734375 109.382812 65.667969 109.382812 65.589844 C 109.382812 65.511719 109.410156 65.445312 109.464844 65.390625 C 109.519531 65.335938 109.585938 65.308594 109.667969 65.308594 C 109.746094 65.308594 109.8125 65.335938 109.867188 65.390625 C 109.921875 65.445312 109.953125 65.511719 109.953125 65.589844 C 109.953125 65.667969 109.921875 65.734375 109.867188 65.789062 C 109.8125 65.84375 109.746094 65.871094 109.667969 65.871094 Z M 109.667969 65.871094 " fill-opacity="1" fill-rule="nonzero"/><path fill="#000000" d="M 109.667969 84.980469 C 109.585938 84.980469 109.519531 84.953125 109.464844 84.898438 C 109.410156 84.84375 109.382812 84.777344 109.382812 84.699219 C 109.382812 84.621094 109.410156 84.554688 109.464844 84.5 C 109.519531 84.445312 109.585938 84.417969 109.667969 84.417969 C 109.746094 84.417969 109.8125 84.445312 109.867188 84.5 C 109.921875 84.554688 109.953125 84.621094 109.953125 84.699219 C 109.953125 84.777344 109.921875 84.84375 109.867188 84.898438 C 109.8125 84.953125 109.746094 84.980469 109.667969 84.980469 Z M 109.667969 84.980469 " fill-opacity="1" fill-rule="nonzero"/><path fill="#000000" d="M 122.914062 61.160156 C 122.832031 61.160156 122.765625 61.132812 122.710938 61.078125 C 122.65625 61.019531 122.628906 60.953125 122.628906 60.878906 C 122.628906 60.800781 122.65625 60.734375 122.710938 60.679688 C 122.765625 60.621094 122.832031 60.59375 122.914062 60.59375 C 122.992188 60.59375 123.058594 60.621094 123.113281 60.679688 C 123.167969 60.734375 123.199219 60.800781 123.199219 60.878906 C 123.199219 60.953125 123.167969 61.019531 123.113281 61.078125 C 123.058594 61.132812 122.992188 61.160156 122.914062 61.160156 Z M 122.914062 61.160156 " fill-opacity="1" fill-rule="nonzero"/><path fill="#000000" d="M 108.84375 51.085938 C 108.765625 51.085938 108.699219 51.058594 108.640625 51.003906 C 108.585938 50.949219 108.558594 50.882812 108.558594 50.804688 C 108.558594 50.726562 108.585938 50.660156 108.640625 50.605469 C 108.699219 50.550781 108.765625 50.523438 108.84375 50.523438 C 108.921875 50.523438 108.988281 50.550781 109.046875 50.605469 C 109.101562 50.660156 109.128906 50.726562 109.128906 50.804688 C 109.128906 50.882812 109.101562 50.949219 109.046875 51.003906 C 108.988281 51.058594 108.921875 51.085938 108.84375 51.085938 Z M 108.84375 51.085938 " fill-opacity="1" fill-rule="nonzero"/><g clip-path="url(#9af7b1b780)"><path fill="#000000" d="M 105.941406 47.96875 C 93.9375 48.132812 84.222656 57.832031 84.222656 69.730469 C 84.222656 81.632812 93.9375 91.332031 105.941406 91.496094 L 105.941406 91.5 L 106.230469 91.5 C 106.230469 91.5 106.230469 91.5 106.234375 91.5 L 106.523438 91.5 L 106.523438 47.960938 L 105.941406 47.960938 Z M 84.804688 69.730469 C 84.804688 58.148438 94.257812 48.710938 105.941406 48.542969 L 105.941406 90.921875 C 94.257812 90.753906 84.804688 81.316406 84.804688 69.730469 Z M 84.804688 69.730469 " fill-opacity="1" fill-rule="nonzero"/></g><g clip-path="url(#ea3c9e22ba)"><path fill="#000000" d="M 104.851562 93.203125 L 104.851562 107.085938 C 105.0625 107.089844 105.273438 107.09375 105.484375 107.09375 L 105.484375 93.214844 C 105.273438 93.214844 105.0625 93.207031 104.851562 93.203125 Z M 104.851562 93.203125 " fill-opacity="1" fill-rule="nonzero"/></g><path fill="#000000" d="M 98.65625 92.226562 L 95.015625 105.644531 C 95.21875 105.699219 95.425781 105.753906 95.628906 105.808594 L 99.265625 92.398438 C 99.058594 92.34375 98.855469 92.289062 98.65625 92.226562 Z M 98.65625 92.226562 " fill-opacity="1" fill-rule="nonzero"/><path fill="#000000" d="M 92.957031 89.6875 L 85.929688 101.714844 C 86.109375 101.820312 86.292969 101.929688 86.476562 102.035156 L 93.5 90.011719 C 93.320312 89.90625 93.136719 89.800781 92.957031 89.6875 Z M 92.957031 89.6875 " fill-opacity="1" fill-rule="nonzero"/><path fill="#000000" d="M 88.148438 85.789062 L 78.210938 95.609375 C 78.355469 95.761719 78.503906 95.910156 78.652344 96.058594 L 88.585938 86.242188 C 88.4375 86.097656 88.292969 85.941406 88.148438 85.789062 Z M 88.148438 85.789062 " fill-opacity="1" fill-rule="nonzero"/><path fill="#000000" d="M 84.535156 80.828125 L 72.367188 87.769531 C 72.46875 87.953125 72.570312 88.136719 72.675781 88.316406 L 84.847656 81.371094 C 84.738281 81.191406 84.632812 81.011719 84.535156 80.828125 Z M 84.535156 80.828125 " fill-opacity="1" fill-rule="nonzero"/><path fill="#000000" d="M 82.355469 75.136719 L 68.777344 78.730469 C 68.828125 78.933594 68.878906 79.132812 68.933594 79.335938 L 82.503906 75.742188 C 82.449219 75.542969 82.402344 75.339844 82.355469 75.136719 Z M 82.355469 75.136719 " fill-opacity="1" fill-rule="nonzero"/><g clip-path="url(#52822b46ad)"><path fill="#000000" d="M 81.730469 69.105469 L 67.679688 69.105469 C 67.679688 69.3125 67.671875 69.523438 67.671875 69.730469 L 81.714844 69.730469 C 81.714844 69.523438 81.726562 69.3125 81.730469 69.105469 Z M 81.730469 69.105469 " fill-opacity="1" fill-rule="nonzero"/></g><path fill="#000000" d="M 93.777344 49.296875 L 86.75 37.273438 C 86.566406 37.378906 86.382812 37.484375 86.203125 37.589844 L 93.226562 49.609375 C 93.40625 49.5 93.589844 49.398438 93.777344 49.296875 Z M 93.777344 49.296875 " fill-opacity="1" fill-rule="nonzero"/><path fill="#000000" d="M 99.421875 47.019531 L 95.785156 33.613281 C 95.582031 33.664062 95.375 33.71875 95.175781 33.777344 L 98.8125 47.191406 C 99.015625 47.132812 99.21875 47.074219 99.421875 47.019531 Z M 99.421875 47.019531 " fill-opacity="1" fill-rule="nonzero"/><g clip-path="url(#d734e4a3a5)"><path fill="#000000" d="M 104.851562 46.261719 C 105.0625 46.257812 105.273438 46.246094 105.484375 46.246094 L 105.484375 32.367188 C 105.273438 32.367188 105.0625 32.375 104.851562 32.378906 Z M 104.851562 46.261719 " fill-opacity="1" fill-rule="nonzero"/></g><path fill="#000000" d="M 85.117188 57.621094 L 72.949219 50.679688 C 72.839844 50.859375 72.734375 51.039062 72.632812 51.222656 L 84.800781 58.164062 C 84.90625 57.980469 85.007812 57.796875 85.117188 57.621094 Z M 85.117188 57.621094 " fill-opacity="1" fill-rule="nonzero"/><path fill="#000000" d="M 88.90625 52.910156 L 78.972656 43.09375 C 78.820312 43.238281 78.671875 43.386719 78.523438 43.535156 L 88.457031 53.351562 C 88.605469 53.203125 88.753906 53.054688 88.90625 52.910156 Z M 88.90625 52.910156 " fill-opacity="1" fill-rule="nonzero"/><path fill="#000000" d="M 82.671875 63.140625 L 69.09375 59.546875 C 69.039062 59.746094 68.980469 59.945312 68.929688 60.148438 L 82.5 63.742188 C 82.550781 63.539062 82.613281 63.339844 82.671875 63.140625 Z M 82.671875 63.140625 " fill-opacity="1" fill-rule="nonzero"/><path fill="#000000" d="M 101.398438 82.378906 L 101.054688 82.527344 C 100.210938 82.886719 99.933594 83.160156 99.570312 83.996094 L 99.417969 84.335938 L 99.269531 83.996094 C 98.90625 83.160156 98.628906 82.886719 97.785156 82.527344 L 97.441406 82.378906 L 97.785156 82.230469 C 98.628906 81.871094 98.90625 81.597656 99.269531 80.765625 L 99.417969 80.421875 L 99.570312 80.765625 C 99.933594 81.597656 100.210938 81.871094 101.054688 82.230469 Z M 99.421875 83.550781 C 99.714844 82.972656 100.019531 82.667969 100.605469 82.378906 C 100.019531 82.089844 99.714844 81.785156 99.421875 81.210938 C 99.128906 81.785156 98.820312 82.089844 98.238281 82.378906 C 98.820312 82.667969 99.128906 82.972656 99.421875 83.550781 Z M 99.421875 83.550781 " fill-opacity="1" fill-rule="nonzero"/><path fill="#000000" d="M 93.265625 72.835938 L 92.921875 72.980469 C 92.078125 73.34375 91.800781 73.617188 91.433594 74.449219 L 91.285156 74.789062 L 91.136719 74.449219 C 90.773438 73.617188 90.496094 73.34375 89.652344 72.980469 L 89.304688 72.835938 L 89.652344 72.6875 C 90.496094 72.328125 90.773438 72.054688 91.136719 71.21875 L 91.285156 70.878906 L 91.433594 71.21875 C 91.800781 72.054688 92.078125 72.328125 92.921875 72.6875 Z M 91.285156 74.003906 C 91.578125 73.425781 91.886719 73.125 92.46875 72.835938 C 91.886719 72.542969 91.578125 72.242188 91.285156 71.664062 C 90.992188 72.242188 90.6875 72.542969 90.101562 72.835938 C 90.6875 73.125 90.992188 73.425781 91.285156 74.003906 Z M 91.285156 74.003906 " fill-opacity="1" fill-rule="nonzero"/><path fill="#000000" d="M 104.382812 64.785156 L 104.039062 64.929688 C 103.191406 65.289062 102.917969 65.566406 102.550781 66.398438 L 102.402344 66.738281 L 102.253906 66.398438 C 101.890625 65.566406 101.613281 65.289062 100.769531 64.929688 L 100.421875 64.785156 L 100.769531 64.636719 C 101.613281 64.277344 101.890625 64.003906 102.253906 63.167969 L 102.402344 62.828125 L 102.550781 63.167969 C 102.917969 64.003906 103.191406 64.277344 104.039062 64.636719 Z M 102.402344 65.953125 C 102.699219 65.375 103.003906 65.074219 103.589844 64.785156 C 103.003906 64.492188 102.699219 64.191406 102.402344 63.613281 C 102.109375 64.191406 101.804688 64.492188 101.21875 64.785156 C 101.804688 65.074219 102.109375 65.375 102.402344 65.953125 Z M 102.402344 65.953125 " fill-opacity="1" fill-rule="nonzero"/><path fill="#000000" d="M 98.21875 57.515625 L 97.875 57.664062 C 97.03125 58.023438 96.753906 58.296875 96.390625 59.132812 L 96.242188 59.472656 L 96.089844 59.132812 C 95.726562 58.296875 95.449219 58.023438 94.605469 57.664062 L 94.261719 57.515625 L 94.605469 57.371094 C 95.449219 57.007812 95.726562 56.734375 96.089844 55.902344 L 96.242188 55.558594 L 96.390625 55.902344 C 96.753906 56.734375 97.03125 57.007812 97.875 57.371094 Z M 96.242188 58.6875 C 96.535156 58.109375 96.839844 57.804688 97.425781 57.515625 C 96.839844 57.226562 96.535156 56.925781 96.242188 56.347656 C 95.949219 56.925781 95.644531 57.226562 95.058594 57.515625 C 95.644531 57.804688 95.949219 58.109375 96.242188 58.6875 Z M 96.242188 58.6875 " fill-opacity="1" fill-rule="nonzero"/><path fill="#000000" d="M 96.300781 66.335938 C 96.378906 66.335938 96.445312 66.363281 96.503906 66.417969 C 96.558594 66.472656 96.585938 66.539062 96.585938 66.617188 C 96.585938 66.695312 96.558594 66.761719 96.503906 66.816406 C 96.445312 66.871094 96.378906 66.898438 96.300781 66.898438 C 96.222656 66.898438 96.15625 66.871094 96.097656 66.816406 C 96.042969 66.761719 96.015625 66.695312 96.015625 66.617188 C 96.015625 66.539062 96.042969 66.472656 96.097656 66.417969 C 96.15625 66.363281 96.222656 66.335938 96.300781 66.335938 Z M 96.300781 66.335938 " fill-opacity="1" fill-rule="nonzero"/><path fill="#000000" d="M 96.417969 77.679688 C 96.496094 77.679688 96.566406 77.707031 96.621094 77.761719 C 96.675781 77.816406 96.703125 77.882812 96.703125 77.960938 C 96.703125 78.039062 96.675781 78.105469 96.621094 78.160156 C 96.566406 78.214844 96.496094 78.242188 96.417969 78.242188 C 96.339844 78.242188 96.273438 78.214844 96.21875 78.160156 C 96.160156 78.105469 96.132812 78.039062 96.132812 77.960938 C 96.132812 77.882812 96.160156 77.816406 96.21875 77.761719 C 96.273438 77.707031 96.339844 77.679688 96.417969 77.679688 Z M 96.417969 77.679688 " fill-opacity="1" fill-rule="nonzero"/><path fill="#000000" d="M 88.871094 66.054688 C 88.953125 66.054688 89.019531 66.082031 89.074219 66.136719 C 89.128906 66.191406 89.15625 66.257812 89.15625 66.335938 C 89.15625 66.414062 89.128906 66.480469 89.074219 66.535156 C 89.019531 66.589844 88.953125 66.617188 88.871094 66.617188 C 88.792969 66.617188 88.726562 66.589844 88.671875 66.535156 C 88.617188 66.480469 88.585938 66.414062 88.585938 66.335938 C 88.585938 66.257812 88.617188 66.191406 88.671875 66.136719 C 88.726562 66.082031 88.792969 66.054688 88.871094 66.054688 Z M 88.871094 66.054688 " fill-opacity="1" fill-rule="nonzero"/><path fill="#000000" d="M 102.6875 73.25 C 102.769531 73.25 102.835938 73.277344 102.890625 73.332031 C 102.945312 73.386719 102.972656 73.453125 102.972656 73.53125 C 102.972656 73.609375 102.945312 73.675781 102.890625 73.730469 C 102.835938 73.785156 102.769531 73.8125 102.6875 73.8125 C 102.609375 73.8125 102.542969 73.785156 102.488281 73.730469 C 102.433594 73.675781 102.402344 73.609375 102.402344 73.53125 C 102.402344 73.453125 102.433594 73.386719 102.488281 73.332031 C 102.542969 73.277344 102.609375 73.25 102.6875 73.25 Z M 102.6875 73.25 " fill-opacity="1" fill-rule="nonzero"/><path fill="#000000" d="M 102.6875 54.140625 C 102.769531 54.140625 102.835938 54.167969 102.890625 54.222656 C 102.945312 54.277344 102.972656 54.34375 102.972656 54.421875 C 102.972656 54.5 102.945312 54.566406 102.890625 54.621094 C 102.835938 54.675781 102.769531 54.703125 102.6875 54.703125 C 102.609375 54.703125 102.542969 54.675781 102.488281 54.621094 C 102.433594 54.566406 102.402344 54.5 102.402344 54.421875 C 102.402344 54.34375 102.433594 54.277344 102.488281 54.222656 C 102.542969 54.167969 102.609375 54.140625 102.6875 54.140625 Z M 102.6875 54.140625 " fill-opacity="1" fill-rule="nonzero"/><path fill="#000000" d="M 89.445312 77.960938 C 89.523438 77.960938 89.589844 77.988281 89.644531 78.042969 C 89.699219 78.101562 89.730469 78.167969 89.730469 78.246094 C 89.730469 78.320312 89.699219 78.386719 89.644531 78.445312 C 89.589844 78.5 89.523438 78.527344 89.445312 78.527344 C 89.363281 78.527344 89.296875 78.5 89.242188 78.445312 C 89.1875 78.386719 89.15625 78.320312 89.15625 78.246094 C 89.15625 78.167969 89.1875 78.101562 89.242188 78.042969 C 89.296875 77.988281 89.363281 77.960938 89.445312 77.960938 Z M 89.445312 77.960938 " fill-opacity="1" fill-rule="nonzero"/><path fill="#000000" d="M 103.511719 88.035156 C 103.589844 88.035156 103.660156 88.0625 103.714844 88.117188 C 103.769531 88.171875 103.796875 88.238281 103.796875 88.316406 C 103.796875 88.394531 103.769531 88.460938 103.714844 88.515625 C 103.660156 88.570312 103.589844 88.597656 103.511719 88.597656 C 103.433594 88.597656 103.367188 88.570312 103.3125 88.515625 C 103.253906 88.460938 103.226562 88.394531 103.226562 88.316406 C 103.226562 88.238281 103.253906 88.171875 103.3125 88.117188 C 103.367188 88.0625 103.433594 88.035156 103.511719 88.035156 Z M 103.511719 88.035156 " fill-opacity="1" fill-rule="nonzero"/><g fill="#000000" fill-opacity="1"><g transform="translate(106.823623, 34.747863)"><g><path d="M 3.019531 0.0703125 C 4.800781 0.0703125 5.703125 -1.710938 5.703125 -3.492188 C 5.703125 -5.28125 4.800781 -7.074219 3.019531 -7.074219 C 1.230469 -7.074219 0.351562 -5.28125 0.351562 -3.492188 C 0.351562 -1.710938 1.230469 0.0703125 3.019531 0.0703125 Z M 3.019531 -6.074219 C 4.152344 -6.074219 4.660156 -4.882812 4.660156 -3.492188 C 4.660156 -2.171875 4.152344 -0.921875 3.019531 -0.921875 C 1.890625 -0.921875 1.402344 -2.171875 1.402344 -3.492188 C 1.402344 -4.882812 1.890625 -6.074219 3.019531 -6.074219 Z M 3.019531 -6.074219 "/></g></g></g><g fill="#000000" fill-opacity="1"><g transform="translate(113.164636, 34.747863)"><g><path d="M 1.609375 -4.390625 C 2.390625 -4.390625 3.019531 -5.003906 3.019531 -5.753906 C 3.019531 -6.484375 2.390625 -7.101562 1.609375 -7.101562 C 0.839844 -7.101562 0.21875 -6.484375 0.21875 -5.753906 C 0.21875 -5.003906 0.839844 -4.390625 1.609375 -4.390625 Z M 1.609375 -5.152344 C 1.289062 -5.152344 1.039062 -5.421875 1.039062 -5.753906 C 1.039062 -6.09375 1.289062 -6.351562 1.609375 -6.351562 C 1.941406 -6.351562 2.191406 -6.09375 2.191406 -5.753906 C 2.191406 -5.421875 1.941406 -5.152344 1.609375 -5.152344 Z M 1.609375 -5.152344 "/></g></g></g><g fill="#000000" fill-opacity="1"><g transform="translate(104.840471, 115.280226)"><g><path d="M 1.941406 -5.203125 L 1.941406 0 L 2.941406 0 L 2.941406 -7.003906 L 2.132812 -7.003906 L 0.238281 -4.34375 L 0.890625 -3.820312 Z M 1.941406 -5.203125 "/></g></g></g><g fill="#000000" fill-opacity="1"><g transform="translate(108.651086, 115.280226)"><g><path d="M 5.121094 -5.140625 C 5.121094 -6.132812 4.371094 -7.113281 2.882812 -7.113281 C 1.8125 -7.113281 0.660156 -6.484375 0.648438 -5.152344 C 0.648438 -4.742188 0.808594 -3.972656 1.570312 -3.660156 C 0.78125 -3.320312 0.359375 -2.632812 0.359375 -2.011719 C 0.359375 -0.902344 1.210938 0.101562 2.882812 0.101562 C 4.570312 0.101562 5.421875 -0.960938 5.421875 -2.011719 C 5.421875 -2.640625 5.050781 -3.351562 4.242188 -3.660156 C 4.8125 -3.921875 5.121094 -4.632812 5.121094 -5.140625 Z M 2.882812 -6.222656 C 3.472656 -6.222656 4.121094 -5.84375 4.121094 -5.171875 C 4.121094 -4.683594 3.722656 -4.070312 2.882812 -4.070312 C 2.050781 -4.070312 1.652344 -4.683594 1.652344 -5.164062 C 1.652344 -5.832031 2.292969 -6.222656 2.882812 -6.222656 Z M 2.882812 -0.839844 C 1.871094 -0.839844 1.359375 -1.460938 1.359375 -2 C 1.359375 -2.550781 1.871094 -3.140625 2.882812 -3.140625 C 3.910156 -3.140625 4.410156 -2.550781 4.410156 -2 C 4.410156 -1.460938 3.910156 -0.839844 2.882812 -0.839844 Z M 2.882812 -0.839844 "/></g></g></g><g fill="#000000" fill-opacity="1"><g transform="translate(114.78207, 115.280226)"><g><path d="M 3.019531 0.0703125 C 4.800781 0.0703125 5.703125 -1.710938 5.703125 -3.492188 C 5.703125 -5.28125 4.800781 -7.074219 3.019531 -7.074219 C 1.230469 -7.074219 0.351562 -5.28125 0.351562 -3.492188 C 0.351562 -1.710938 1.230469 0.0703125 3.019531 0.0703125 Z M 3.019531 -6.074219 C 4.152344 -6.074219 4.660156 -4.882812 4.660156 -3.492188 C 4.660156 -2.171875 4.152344 -0.921875 3.019531 -0.921875 C 1.890625 -0.921875 1.402344 -2.171875 1.402344 -3.492188 C 1.402344 -4.882812 1.890625 -6.074219 3.019531 -6.074219 Z M 3.019531 -6.074219 "/></g></g></g><g fill="#000000" fill-opacity="1"><g transform="translate(121.123083, 115.280226)"><g><path d="M 1.609375 -4.390625 C 2.390625 -4.390625 3.019531 -5.003906 3.019531 -5.753906 C 3.019531 -6.484375 2.390625 -7.101562 1.609375 -7.101562 C 0.839844 -7.101562 0.21875 -6.484375 0.21875 -5.753906 C 0.21875 -5.003906 0.839844 -4.390625 1.609375 -4.390625 Z M 1.609375 -5.152344 C 1.289062 -5.152344 1.039062 -5.421875 1.039062 -5.753906 C 1.039062 -6.09375 1.289062 -6.351562 1.609375 -6.351562 C 1.941406 -6.351562 2.191406 -6.09375 2.191406 -5.753906 C 2.191406 -5.421875 1.941406 -5.152344 1.609375 -5.152344 Z M 1.609375 -5.152344 "/></g></g></g></svg>